# xmcd CD database file
# Copyright (C) 1993-1997  Ti Kan
#
# Track frame offsets:
#	150
#	17287
#	46102
#	63705
#	87110
#	110347
#	133915
#	153862
#	172132
#	190667
#	207445
#	223520
#	239495
#	256265
#
# Disc length: 3699 seconds
#
# Revision: 1
# Processed by: cddbd v1.4b41PL1 Copyright (c) Steve Scherf et al.
# Submitted via: xmcd 2.1 PL1
#
DISCID=be0e710e
DTITLE=Matt Taylor - Pyramids and Spirals
DYEAR=1900
DGENRE=
TTITLE0=City Shines
TTITLE1=Northern New South Wales
TTITLE2=Memphis Has Got a Pyramid
TTITLE3=Tropical Rain
TTITLE4=Willy Brown
TTITLE5=Green Turns To Blue
TTITLE6=Chi Kung Boogie
TTITLE7=Certain Kind Of Thrill
TTITLE8=The Spiral
TTITLE9=Fuhrer Bunker
TTITLE10=My Last Day In Berlin
TTITLE11=Relax'in
TTITLE12=Oz Boogie
TTITLE13=Free At Last
EXTD=1995\nNEW CD 1062.2
EXTT0=
EXTT1=
EXTT2=
EXTT3=
EXTT4=
EXTT5=
EXTT6=
EXTT7=
EXTT8=
EXTT9=
EXTT10=
EXTT11=
EXTT12=
EXTT13=
PLAYORDER=
